<svg width="218" height="217" xmlns="http://www.w3.org/2000/svg" xmlns:xlink="http://www.w3.org/1999/xlink" overflow="hidden"><defs><clipPath id="clip0"><rect x="574" y="0" width="218" height="217"/></clipPath><clipPath id="clip1"><rect x="575" y="1" width="216" height="216"/></clipPath><clipPath id="clip2"><rect x="575" y="1" width="216" height="216"/></clipPath><clipPath id="clip3"><rect x="575" y="1" width="216" height="216"/></clipPath></defs><g clip-path="url(#clip0)" transform="translate(-574 0)"><g clip-path="url(#clip1)"><g clip-path="url(#clip2)"><g clip-path="url(#clip3)"><path d="M767.375 93.7C768.26 91.0907 768.716 88.3551 768.725 85.6 768.657 72.8668 759.621 61.9475 747.125 59.5 743.39 48.5364 733.057 41.1942 721.475 41.275 719.357 41.277 717.245 41.5032 715.175 41.95 710.377 36.3853 703.595 32.9138 696.275 32.275 695.701 32.2403 695.128 32.223 694.557 32.2228 687.789 32.1864 681.255 34.6946 676.25 39.25 671.636 36.1212 666.191 34.4436 660.617 34.433 649.248 34.4346 639.11 41.5891 635.3 52.3L633.725 52.3C618.952 52.2111 606.885 64.0776 606.725 78.85L606.725 80.2C597.737 85.1777 592.466 94.929 593.225 105.175 594.125 119.35 606.725 129.925 621.125 129.925L656 129.925C670.861 129.924 682.978 141.841 683.225 156.7L683.225 185.5 687.725 185.464 687.725 156.632C687.379 139.34 673.295 125.486 656 125.425L621.125 125.425C608.73 125.425 598.447 116.405 597.716 104.882 597.051 96.3753 601.422 88.2651 608.894 84.1431L611.225 82.8606 611.225 80.2 611.225 78.9175C611.331 66.5967 621.404 56.6945 633.725 56.8L638.459 56.8 639.532 53.8282C642.699 44.9007 651.144 38.9346 660.617 38.9332 665.293 38.9346 669.861 40.343 673.726 42.9758L676.67 44.9697 679.291 42.5676C683.466 38.7739 688.915 36.6879 694.557 36.7228 695.013 36.7228 695.47 36.7361 695.929 36.7624 702.045 37.3042 707.711 40.2024 711.729 44.8444L713.485 46.9351 716.151 46.3429C717.901 45.9685 719.685 45.7784 721.475 45.775 731.143 45.6848 739.775 51.8162 742.874 60.9751L743.718 63.408 746.243 63.9129C756.627 65.9539 764.142 75.0176 764.225 85.6 764.214 87.8712 763.836 90.1256 763.106 92.2764L762.332 94.6 763.862 96.5125C769.813 104.012 770.192 114.511 764.797 122.42L764.034 123.526 764.002 124.87 763.996 125.244C764.006 125.835 763.963 126.425 763.865 127.008 760.824 142.009 746.125 148.867 742.448 149.858L742.269 149.897C735.58 151.319 724.618 157.3 723.388 181L723.196 185.5 727.775 185.5C727.775 156.25 741.725 154.675 743.525 154.225 749.375 152.65 764.9 144.55 768.275 127.9 768.443 126.934 768.518 125.955 768.5 124.975 775.027 115.432 774.571 102.749 767.375 93.7Z" fill="#F2F2F2" fill-rule="nonzero" fill-opacity="1"/><path d="M739.052 103.811C742.136 101.852 744.914 99.4481 747.296 96.6781 751.267 91.3629 752.406 82.1498 752.453 81.7606 752.602 80.5267 751.721 79.4067 750.487 79.2586 749.253 79.1108 748.133 79.991 747.985 81.2249 747.974 81.309 746.937 89.6399 743.691 93.9851 742.332 95.6283 740.765 97.0874 739.03 98.3262 738.508 91.0502 735.179 84.2619 729.746 79.3945 726.807 77.0327 723.607 75.0156 720.209 73.3825 720.761 71.3838 721.698 69.5121 722.967 67.8727 724.836 65.8844 727.197 64.4257 729.812 63.6447 731.016 63.3374 731.743 62.112 731.435 60.908 731.128 59.7041 729.902 58.9771 728.698 59.2847 728.686 59.2876 728.674 59.2907 728.662 59.2941 725.156 60.3116 721.997 62.2738 719.532 64.9659 717.945 66.9646 716.754 69.2481 716.023 71.6934 714.509 71.1683 712.977 70.6735 711.468 70.2084 707.138 69.1298 703.002 67.384 699.209 65.0334 696.115 62.7195 694.214 59.1461 694.024 55.2869 694.069 53.7076 694.081 52.2073 694.081 52.2073 694.092 50.9646 693.094 49.9483 691.851 49.9373 690.608 49.9263 689.592 50.9246 689.581 52.1672 689.581 52.1672 689.568 53.6262 689.526 55.1633 689.681 60.5238 692.29 65.5158 696.603 68.7025 697.573 69.3854 698.588 70.0023 699.641 70.5493 696.505 71.3762 692.661 72.3567 689.953 72.9368 681.187 74.8781 672.08 74.6456 663.425 72.2595 657.299 70.0716 652.162 65.7588 648.946 60.1048 648.366 59.0057 647.005 58.5847 645.906 59.1645 644.826 59.7345 644.397 61.0622 644.941 62.1559 648.684 68.9018 654.785 74.0285 662.075 76.553 662.304 76.625 662.533 76.6655 662.762 76.7343 660.19 79.277 657.349 81.5331 654.29 83.4625 646.993 87.114 638.725 88.3511 630.679 86.995 627.387 86.205 624.32 84.6698 621.714 82.508 620.779 81.6897 619.357 81.7847 618.539 82.7198 617.726 83.6486 617.813 85.0587 618.734 85.8804 621.932 88.5711 625.723 90.4652 629.795 91.407 632.062 91.8426 634.365 92.0591 636.673 92.0537 634.063 93.6516 631.671 95.5801 629.555 97.7912 625.111 102.743 622.493 109.065 622.138 115.709 622.147 116.945 623.152 117.941 624.388 117.939L624.394 117.939C625.634 117.934 626.637 116.928 626.638 115.687 627.029 110.147 629.247 104.892 632.945 100.747 636.94 96.1685 648.155 90.7071 648.662 90.4616 651.378 89.7551 654 88.7273 656.472 87.4 660.65 84.6964 664.505 81.5244 667.962 77.9457L667.971 77.9309C671.088 78.4704 674.244 78.7445 677.407 78.7499 681.42 78.7434 685.425 78.3717 689.371 77.6397 686.769 81.7152 685.272 86.3965 685.025 91.225 685.05 94.7883 685.619 98.3267 686.711 101.719 683.716 101.268 680.748 100.653 677.821 99.8767 675.568 99.1149 673.406 98.1033 671.378 96.8604 670.328 96.1955 668.938 96.5078 668.273 97.5579 667.608 98.6079 667.92 99.998 668.97 100.663 671.33 102.117 673.849 103.295 676.479 104.173 680.502 105.203 684.579 106.01 688.691 106.589 689.202 107.628 689.79 108.626 690.451 109.577 691.837 111.541 693.418 113.36 695.168 115.007 696.094 115.837 697.517 115.759 698.347 114.833 699.176 113.907 699.098 112.485 698.172 111.655 696.669 110.226 695.31 108.653 694.113 106.959 691.132 102.252 689.541 96.7973 689.525 91.225 689.525 83.9037 695.718 76.2951 695.811 76.1815 700.73 74.9564 705.973 73.5067 706.27 73.4243 706.335 73.4063 706.38 73.3602 706.442 73.3375 707.677 73.7475 708.917 74.1313 710.145 74.5093 712.359 75.1899 714.45 75.8332 716.434 76.6126 720.129 78.1957 723.598 80.2603 726.751 82.7528 731.681 87.1543 734.542 93.4199 734.638 100.028 734.678 102.606 734.474 105.182 734.028 107.722 730.761 106.612 727.416 105.749 724.021 105.137 720.97 104.909 717.907 104.905 714.856 105.123 713.616 105.206 712.678 106.279 712.762 107.519 712.845 108.759 713.917 109.697 715.157 109.613 717.911 109.409 720.676 109.405 723.43 109.599 726.665 110.204 729.852 111.043 732.966 112.109 731.762 115.78 729.854 119.181 727.347 122.12 725.114 124.392 722.625 126.398 719.932 128.099 713.654 132.493 706.539 137.473 704.342 145.532 703.664 149.295 703.273 153.103 703.172 156.925 703.172 158.5 703.146 180.174 703.14 185.5L707.64 185.5C707.646 180.163 707.672 158.498 707.672 156.925 707.773 153.503 708.111 150.092 708.685 146.717 710.455 140.226 716.861 135.742 722.513 131.786 725.356 129.954 727.996 127.825 730.388 125.434 732.086 127.46 733.932 129.355 735.913 131.104 738.439 133.17 742.055 135.623 742.208 135.726 743.239 136.42 744.637 136.147 745.331 135.116 746.022 134.089 745.754 132.696 744.73 132 744.695 131.976 741.128 129.556 738.763 127.622 736.767 125.816 734.906 123.866 733.195 121.789 736.746 116.443 738.768 110.228 739.043 103.816Z" fill="#F2F2F2" fill-rule="nonzero" fill-opacity="1"/></g></g></g></g></svg>